<?xml version="1.0" standalone="no"?>
<!DOCTYPE svg PUBLIC "-//W3C//DTD SVG 20010904//EN"
 "http://www.w3.org/TR/2001/REC-SVG-20010904/DTD/svg10.dtd">
<svg version="1.0" xmlns="http://www.w3.org/2000/svg"
 width="512.000000pt" height="512.000000pt" viewBox="0 0 512.000000 512.000000"
 preserveAspectRatio="xMidYMid meet">
<metadata>
Created by potrace 1.14, written by Peter Selinger 2001-2017
</metadata>
<g transform="translate(0.000000,512.000000) scale(0.100000,-0.100000)"
fill="#000000" stroke="none">
<path d="M1492 5100 c-291 -76 -456 -333 -372 -579 41 -124 123 -210 267 -284
92 -47 132 -84 148 -137 10 -29 16 -168 9 -192 -3 -10 -24 -21 -56 -29 -73
-17 -161 -64 -243 -128 -141 -112 -212 -181 -232 -228 -30 -73 -5 -174 55
-225 88 -74 199 -61 302 35 66 61 174 147 185 147 15 0 29 -31 18 -39 -38 -28
-147 -199 -201 -312 -28 -61 -101 -259 -102 -277 0 -4 -5 -31 -12 -61 l-12
-53 -18 68 c-74 271 -305 524 -479 524 -156 0 -287 -180 -336 -460 -11 -67 -8
-268 6 -320 34 -126 120 -239 227 -300 61 -34 70 -50 79 -141 3 -35 8 -86 10
-114 3 -27 7 -70 10 -95 11 -101 15 -149 20 -220 3 -41 8 -86 10 -100 2 -14 7
-56 10 -94 7 -77 24 -117 63 -152 46 -41 91 -49 187 -35 75 12 90 11 137 -5
99 -33 180 -43 308 -40 69 2 133 7 142 11 13 5 20 0 28 -21 19 -49 65 -138 95
-182 l29 -43 -30 -25 c-16 -13 -58 -38 -94 -56 -57 -29 -73 -33 -140 -31 -41
1 -88 6 -103 12 -164 63 -301 -135 -179 -257 50 -50 154 -76 302 -75 87 0 118
5 184 27 44 15 92 36 107 46 15 11 30 20 35 20 4 0 22 12 41 26 l33 25 -7 -83
c-8 -97 -8 -327 0 -413 9 -94 17 -120 49 -159 79 -96 218 -99 302 -6 43 47 54
86 50 170 -5 90 -5 310 0 340 2 14 4 37 5 53 1 25 3 27 34 21 104 -19 143 -22
247 -19 63 2 129 6 145 9 17 4 42 9 57 12 l26 5 7 -83 c4 -46 5 -158 2 -250
-4 -144 -2 -172 13 -205 38 -82 90 -116 181 -117 59 -1 73 3 111 29 53 37 85
100 92 180 7 76 7 376 1 435 -11 108 -16 146 -21 166 -4 16 10 36 61 85 37 35
87 91 112 124 45 59 123 206 123 232 0 7 12 13 28 14 73 2 142 11 244 30 l58
12 37 -42 c24 -26 56 -48 88 -60 51 -18 62 -19 148 -6 36 6 51 4 65 -7 82 -73
213 -66 294 16 86 86 79 234 -14 310 -18 15 -46 37 -61 49 -29 23 -36 56 -24
112 7 29 20 104 32 175 32 188 46 254 55 265 6 7 42 23 79 34 54 16 76 30 106
62 81 90 91 189 27 282 -51 76 -129 102 -244 83 -40 -7 -52 -5 -77 13 -98 70
-220 57 -295 -31 -88 -102 -66 -249 49 -333 55 -39 68 -62 60 -106 -2 -13 -13
-77 -24 -141 -12 -64 -21 -120 -21 -123 0 -3 -15 -5 -32 -5 -44 -1 -97 -21
-139 -52 -57 -43 -121 -75 -194 -96 -60 -18 -175 -37 -175 -30 0 2 6 23 14 47
9 32 10 57 3 90 -5 25 -10 53 -11 62 0 8 26 38 60 66 124 104 212 236 254 383
24 81 35 288 20 358 -5 20 -11 51 -13 67 -31 200 -154 475 -286 642 -22 29
-41 57 -41 62 0 34 50 15 115 -44 150 -136 180 -156 252 -162 73 -6 130 22
177 86 27 38 31 51 31 109 0 91 -7 101 -150 227 -83 74 -176 140 -234 167 -50
22 -142 53 -153 50 -12 -3 -9 158 3 201 15 56 62 102 142 142 98 47 176 111
222 180 113 171 96 374 -44 522 -109 116 -241 172 -416 178 -141 5 -254 -27
-379 -107 -77 -50 -131 -52 -199 -8 -130 82 -223 112 -356 115 -143 4 -234
-21 -369 -100 -106 -62 -147 -60 -252 15 -109 77 -335 109 -488 70z m-257
-2655 c3 -17 8 -48 11 -70 11 -68 60 -182 115 -262 43 -64 157 -181 207 -212
10 -6 9 -16 -2 -47 -15 -45 -13 -121 4 -154 6 -12 10 -24 7 -26 -2 -2 -30 -9
-63 -15 -76 -14 -168 -4 -231 25 -42 20 -51 29 -56 57 -4 19 -25 104 -47 189
-23 85 -43 162 -45 170 -1 8 -10 43 -19 76 -23 88 -20 107 19 156 19 23 39 48
43 53 4 6 17 29 28 51 10 23 20 41 21 40 1 -1 4 -15 8 -31z"/>
</g>
</svg>
